<svg xmlns="http://www.w3.org/2000/svg" width="527.939" height="681.485" viewBox="0 0 527.939 681.485">
  <g id="Screenshot_2024-02-17_153030" data-name="Screenshot 2024-02-17 153030" transform="translate(-1.061 -1)">
    <path id="Path_1" data-name="Path 1" d="M26.75,1c2.739,5.83,3.94,12.041,5.685,18.094,4.823,16.73,10.518,33.048,23.424,45.653C67.39,76.009,80.7,84.861,94.451,93.07c31.966,19.081,66.981,30.065,102.929,38.57,15.05,3.56,30.07,7.2,44.817,11.973,21.817,7.059,34.562,21.99,40.205,43.856,4.622,17.912,6.828,36.225,9.889,54.4,1.205,7.158,2.614,14.282,4.006,21.834-8.43,1.5-16.251-.546-24.016-.483-.6-2.059.864-2.505,1.767-2.8,5.49-1.773,5.471-5.468,4.3-10.213-1.952-7.9-3.571-15.89-5.035-23.9-3.824-20.907-16.323-34.873-34.91-43.985-23.3-11.419-47.9-19.012-73.116-24.8a5.265,5.265,0,0,0-4.094.307c.163,5.4,3.591,7.631,8.321,8.893a198.436,198.436,0,0,1,58.743,26.978,118.992,118.992,0,0,1,28.065,26.1,26.926,26.926,0,0,1,1.955,2.894,14.747,14.747,0,0,1,.631,2.78c-28.462-12.684-55.581-26.972-87.461-30.283,2.326,5.827,4.131,10.793,6.293,15.6,1.311,2.914,4.395,2.557,7,2.866,22.3,2.638,43.211,9.324,62.219,21.47a48.848,48.848,0,0,1,13.575,12.411c1.028,1.423,2.32,2.793,2.163,5.122-4.276-.147-7.936-1.76-11.654-2.974-13.92-4.542-27.79-9.253-42.453-10.878-4.627-.513-9.254-1.083-13.9-1.367-2.582-.158-4.048-.975-4.2-3.742-.1-1.815-.68-3.6-.77-5.419-.43-8.683-.8-9.137-11.108-11.179,10.065,5.775,7.855,15.384,9.34,23.281,3.583,19.048,6.764,38.233,4.669,58.028q-5.479-26.454-10.96-52.907l-1.139-.292-13.764,34.611c-.733-3.607.772-5.807-.364-8.341-2.629,2.188-3.046,5.454-4.506,8.045-2.808,4.984-5.006,5.15-8.056.187-3.4-5.53-4.243-11.741-4.866-18.822,7.493.347,14.5-.064,21.418,3.842,2.622-11.424,8.411-22,11.146-34.205l-52.259-19.879c2.557,20.52,11.555,38.228,14.71,57.3l-1.316.463Q134.333,246.554,126,224.692l-1.929-.184c-11.149,19.9-16.743,42.127-25.709,63.215,2.775,1.483,5.249.93,7.64.675a135.353,135.353,0,0,1,37.771,1.2,11.534,11.534,0,0,1,9.076,6.8c-10.954,12.357-45.167,10.546-64.536,2.408,8.645-11.545,13.14-24.822,17.514-38.164,4.336-13.225,9.457-26.211,12.446-39.85-3.125,2.218-3.11,5.642-3.875,8.673-.951,3.771-2.671,5.165-6.744,4.415-32.139-5.926-58.373-21.171-78.238-47.542C13.591,165.332,5.173,141.814,2.577,115.914a21.274,21.274,0,0,0-1.366-4.6,3.04,3.04,0,0,1,.075-2.088c2.4-.969,2.785.663,3.348,2.03,1.2,2.925,2.567,5.8,3.535,8.8,6.344,19.665,17.506,36.067,32.724,49.993,14.482,13.252,30.037,24.2,49.9,27.745a114.562,114.562,0,0,1,15.368,4.315c6.526,2.141,13.523,3.883,14.577,12.788,3.852-5.089.131-10.291,1.715-15.451,7.637.549,14.825,2.592,22.12,3.971,5.137.971,5.991.282,6.1-4.725.169-8-.175-8.676-7.706-11.092-22.484-7.215-45.36-13.121-67.341-22.011-22.877-9.253-40.644-23.662-51.92-45.835C15.5,103.625,11.349,86.387,9.909,68.542c-.618-7.666-1.342-15.519.32-24.308,2.782,5.859,3.841,11.174,5.132,16.4,5.028,20.351,13.926,38.805,29.764,52.729,22.059,19.392,48.576,30.546,76.621,38.348,6.279,1.746,12.775.661,19.348,1.285-7.716,14.273-7.716,14.273,2.623,14.854,1.68,5.388,4.7,10.05,8.35,16.043,1.1-7.5.185-13.886,2.323-20.139,2.325,2,2.593,4.66,2.916,7.21a310.149,310.149,0,0,1,2.01,32.358c.036,1.624-.533,3.682,1.046,4.68,4.692,2.965,9.438,5.946,15.653,6.731-.335-3.651-1.719-6.313-2.857-9.021-5.67-13.485-12.275-26.592-14.939-41.219a15.945,15.945,0,0,0-6.508-10.667c-3.269,1.032-2.075,5.244-5.445,6.745-.476-8.928-6.735-12.244-13.515-15.149-21.413-9.175-40.871-21.615-59.579-35.388C52.2,94.593,37.2,75.141,30.845,49.517,26.887,33.563,25.858,17.347,26,1h.75m96.638,299.773c6.55-.077,12.9-.966,19.055-4.009-5.6-6.617-35.6-5.948-38.683.544C109.565,300.785,115.989,300.846,123.388,300.773Z"/>
    <path id="Path_2" data-name="Path 2" d="M529,585.531c-4.757,1.255-8.509,4.179-12.532,6.469q-62.732,35.718-125.284,71.451s-20.043,11.76-23.143,13.918c-10.3,7.17-19.747,6.495-30.48-.1-46.153-28.339-94.006-53.732-141.16-80.338-8.271-4.667-16.51-9.394-24.876-13.885-2.861-1.535-4.011-3.419-3.93-6.7.476-19.3,1.618-38.569,2.9-57.831.792-11.95,1.535-23.9,2.164-35.863,1.083-20.594,2.76-41.136,4.78-61.66.829-8.431,1.7-16.841,3.012-25.207a24.737,24.737,0,0,1,.79-2.7c1.6,1.819,1.072,3.509,1.077,5.019.044,13.166-.047,26.332.041,39.5.286,42.492.709,84.983.839,127.475.014,4.474,2.069,6.558,5.423,8.566,34.318,20.548,69.517,39.525,104.572,58.759,18.258,10.018,36.593,19.9,54.81,29.989,3.231,1.79,5.867,2.012,9.22.181C410.3,633.585,463.6,605.013,515.812,574.452c5.061-2.963,7.017-6.218,6.991-12.211-.24-54.5-.126-109-.1-163.493,0-1.466-.376-3,.929-5.2,3.531,8.3,2.949,16.836,5.221,25.1C529,474.354,529,529.708,529,585.531"/>
    <path id="Path_11" data-name="Path 11" d="M292.022,278.954c4.369-8.451,6.208-18.573,16.909-22.576,5.8-2.171,10.313-6.746,14.366-11.423,4.726-5.454,5.132-11.877,3.817-18.636-.841.039-1.369-.055-1.44.084a53.868,53.868,0,0,1-15.481,18.557c-2.389,1.825-3.161,4.985-3.984,7.918-.456,1.629-.374,3.9-2.8,4.2a2.694,2.694,0,0,1-2.828-1.7c-.872-2.076-2.6-4.242-.756-6.483a28.41,28.41,0,0,1,5.689-5.58c5.524-3.744,6.169-9.408,7.119-15.659-7.179-.284-8.584,5.718-11.758,9.574-1.483-3.763-1.039-5.922,2.726-9.328,4.438-4.017,8.711-8.289,13.314-12.024,6.7-5.436,6.58-11.95,5.358-19.665-5.993,5.321-8.133,12.739-12.848,19.766-.519-4.239.86-6.858,2.088-9.367,1.459-2.98,3.432-5.7,5.067-8.6,3.091-5.483,4.778-10.861,2.339-17.444-4.891-13.2-.007-26.5,11.114-32.248,1.6,1.827-.853,3.323-.249,5.7,4.81-.723,8.319-3.769,12.434-6.6-3.67-1-7.031.6-10.671-.939,2.866-3.88,6.292-5.026,10.368-3.115,4.375,2.051,8.518,2.305,12.939.192,4.1-1.961,8.084-.115,12.227.714-.037,3.771-2.81,3.77-5.975,4.5l5.177,2.621c2.127-.762,1.751-3.264,3.638-3.67,5.573,4.551,6.689,7.658,4.895,13.581-.34,1.123-.34,1.123,1.13,4.1,2.188-.349.971-3.53,4.047-3.979,3.687,14.4-.865,29.716,4.663,43.65-8.075,4.4-11.76,17.88-8,29.739a28.915,28.915,0,0,0-.373-4.9c-1.168-4.768-.218-8.147,5.109-9.432,2.714-.655,3.715-2.45,2.734-5.321a4.851,4.851,0,0,1,1.506-5.424c4.149,5.389,4.021,14.739-.559,18.831-5.881,5.254-6.611,12.213-7.627,20.117,10.344-4.618,10.8-15.2,16.18-23.687,1.425,7.562.6,13.322-3.294,18.567-2.578,3.47-5.408,6.761-7.388,10.667-1.144,2.255-1.2,3.74,1.183,5.412,7.966,5.578,16.261,10.408,25.68,13.106,2.672.766,2.654.829,3.579,3.63-.273.162-.61.526-.815.462-11.633-3.609-22.93-8.013-33.036-14.952-7.668-5.266-9.544-13.392-9.7-21.934-.15-8,.057-15.988-2.226-23.759-.734-2.5.028-4.515,1.455-6.522,2.03-2.853,4.016-5.786,4.966-9.2,1.1-3.954,1.649-7.908-2.374-10.666.789-4.369,4.3-1.841,6.65-2.725.091-2.567-.1-5.306-1.474-7.182-3.821-5.209-5.773-11.489-9.32-16.649-9.129-13.282-29.543-11.545-36.269,2.585,23.763-6.328,30.844-5.715,36.662,3.2-1.919,1.27-3.789-.937-6.006-.034.9,1.466,1.737,2.824,3.294,5.358-6.688-1.147-11.379-4.95-17.533-5.083,1.862-3.132,4.959-1.685,6.8-3.177-7.672-4.352-16.758-1.635-29.569,8.956,1.228,2.722,1.774,5.67-.433,8.8a17.033,17.033,0,0,0,10.713-3.424,94.085,94.085,0,0,1,8.812-5.651,8.029,8.029,0,0,1,8.583.051,52.692,52.692,0,0,0,13.23,5.658c2.63.781,5.995,1.669,5.966,6.385-8.228-.856-14.655-6.2-22.363-8.071-.966,1.924,3.06,3.39.346,5.614-2.234,1.829-4.312,1.775-6.936,1.383-4.618-.69-9.834-3.6-13.067,2.9-2.184,4.389-3.991,8.524-2.724,13.749,3.259,13.433,3.689,13.894,17.115,10.588,5.058-1.246,9.761-1.38,14.272,1.89,3.172,2.3,3.814,4.171.6,7-3.613,3.173-7.765,4.279-12.4,4.4-5.612.143-5.951.605-4.62,6.262,1.445,6.142,2.235,12.455,4.775,18.315,2.975,6.863,5.158,7.21,10.241,1.568.754-.838,1.456-1.723,2.306-2.734,1.772,6.767-5.518,14.447-11.73,12.781-2-.535-2.273-2.354-2.7-3.877-1.938-6.885-3.651-13.834-5.634-20.706a34.934,34.934,0,0,0-4.495-10.415c-2.619,5.892-.835,11.473-.034,17.016a41,41,0,0,0,1.446,5.807c1.591,5.319,1.368,10.211-4.038,14.109,4.041,2.27,7.431,3.987,10.632,6.005,18.482,11.65,34.17,26.493,48.665,42.7,2.708,3.029,4.9,6.807,9.8,7.787,1.2-5.352-.053-10.578-.054-15.939,2.6-.163,3.179,1.788,4.17,3.133,6.288,8.542,7.415,18.714,8.963,28.731,1.152,7.46,2.936,14.816,6.6,21.368a173.821,173.821,0,0,1,20.269,58.07c2.172,13.679,7.565,26.536,12.678,39.374,5.8,14.555,11.163,29.2,12.46,45.009.7,8.526,6.634,13.468,12.9,18.064,2.007,1.47,3.757,1.242,4.611-1.43,1.266-3.96,2.782-7.863,3.725-11.9,1.057-4.53-.55-8.465-3.6-11.949-3.182-3.631-6.188-7.418-9.212-11.184a6.756,6.756,0,0,1-1.707-2.963c-.39-3.207,9.807-12.443,12.972-11.667,11.754,2.882,12.624.594,11.6,13.848-1.151,14.919-7.428,27.854-13.556,40.958-5.686,12.159-5.831,12.385,7.2,16.675,7.586,2.5,13.764,5.921,15.608,14.365a12.147,12.147,0,0,1,.256,1.966,4.278,4.278,0,0,1-.259,1.084c-2.853,1.7-5.487.558-7.786-1.137-5.7-4.2-12.328-5.648-19.045-6.969-4.323-.85-7.475.2-8.981,4.788-3.9,11.858-7.828,23.7-11.922,35.494-1.366,3.933-2.88,7.932-7.292,11.69.949-6.5,3.3-11.086,4.923-15.863,3.163-9.3,6.633-18.493,9.974-27.731a3.869,3.869,0,0,0,.144-.479c.7-3.12,2.92-7.41-1.168-8.682-3.793-1.179-3.857,3.739-4.743,6.256-5.862,16.64-11.7,33.3-17.088,50.092-1.582,4.927-5.114,6.653-9.158,8.256-2.85,1.13-3.828-1.368-5.025-3.008-7.888-10.814-13.674-22.853-20.045-34.554-17.086-31.381-29.669-64.783-43.846-97.47q-12.921-29.793-25.787-59.611c-.493-1.136-.7-2.568-3.313-3.515,2.5,75.641,2.035,150.805.356,226.049,4.029-5.051,5.546-10.932,7.266-16.666,4.71-15.7,6.456-31.861,7.482-48.174.845-13.439.744-26.955,2.879-40.3.174-1.092-.164-2.378,1.515-3.274,2.319,4.121,2.182,8.811,2.9,13.17,5.4,32.6,10.552,65.248,15.871,97.865.419,2.567-.219,4.1-2.533,5.224-5.545,2.691-11.1,5.384-16.523,8.3-3.178,1.707-5.778.385-8.495-.9-15.693-7.436-30.353-16.686-45.161-25.682-15.23-9.252-30.3-18.845-47.29-24.709-3.439-1.187-3.544-3.292-2.791-6.232,2.434-9.493,5.39-18.847,6.876-28.591a70.306,70.306,0,0,0,.428-19.917c-4.276-31.628.255-62.308,8.68-92.706,4.483-16.175,8.551-32.45,10.845-49.131a16.054,16.054,0,0,0-2.147-10.494c-2.449-4.328-2.062-8.312-.142-12.8,4.3-10.069,10.614-19.336,12.452-30.41,1.144-6.891.5-13.745.433-21.3-4.018,1.88-5.157,4.8-6.458,7.349-4.475,8.765-11.943,12.046-21.272,12.222-3.885.073-4.909-1.421-2.874-4.867a60.9,60.9,0,0,1,21.477-21.232c4.835-2.9,5.973-5.525,3.066-10.163-1.037-1.655-1.415-3.726-3.558-5.507-3.966,3.542-7.872,7.074-11.827,10.55-10.161,8.934-20.379,17.811-34.087,20.947-7.369,1.686-14.076.372-21.289-5.608,11.867-3.906,22.145-8.688,31.4-15.383,9.12-6.6,17.921-13.721,29.1-17.134-5.72-7.14-13.981-9.888-21.671-7.287a49.622,49.622,0,0,0-9.057,4.154c-10.679,6.239-21.436,12.2-34.073,12.943-.21.954-.481,1.453-.388,1.872,2.222,10.048,3.153,10.054-8.415,13.942-11.993,4.032-24.332,5.4-36.833,2.068a29.02,29.02,0,0,1-13.382-7.426c-2.168-2.164-2.979-4.181-.568-6.85,4.05-4.486,5.448-10.493,8.571-16.941.933,5-1.888,8.158-1.348,12.1,6.036,1.427,11.983-.6,18.412-.41-2.322-3.3-7.022-3.866-7.116-8.534a67.828,67.828,0,0,1,14.814-1.491c6.381-.125,5.829,7.589,10.553,9.383,3.606-1.87.726-5.166,1.815-8.024,2.64,3.545,3.168,8.505,8.538,10.031-1.22-9.069-4.561-17.223-5.55-25.968,4.039,4.825,5.009,10.944,7.541,17.854-1.71-5.911.987-7.484,4.994-8.746a121.927,121.927,0,0,0,20.877-8.329c-10.1-5.266-20.738-6.487-29.9-11.679.827-4.2,3.724-3.878,6.492-3.074q18.453,5.357,36.839,10.947c7.2,2.177,14.449,3.723,22.056,3.629,3.828-.047,5.389-1.2,5.316-5.183-.068-3.72-.709-7.618,1.163-11.444,5.639,1.009,9.052,4.82,12.457,8.864,2.028-.666,3.41-3,6.267-1.67-.058,4.483-1.837,8.277-1.661,12.568,9.366-3.109,11.111-13.293,18.2-19.1.942,6.044-4.2,10.425-2.3,16.4,3.171-7.22,4-13.986,3.1-24-6.392,3.791-10.436,10.342-16.981,13.755M461.6,510.943c-2.469-20.029-9.648-38.637-17.223-57.128-4.608-11.246-9.28-22.532-11.431-34.529a135.745,135.745,0,0,0-17.354-45.426c-3.66-6.183-7.965-11.984-12.443-18.651-3.215,7.819-5.579,14.2-3.269,21.788,2.084,6.849,2.468,14.093-1.078,20.925-1.147,2.21-1.8,4.682-2.984,6.867-2.371,4.366-1.59,8.155,1.2,12.074,3.569,5.018,6.768,10.3,10.141,15.457,6.283,9.608,9.113,19.894,6.209,31.324-.83,3.269-1.34,6.637.222,9.753,5.111,10.2,6.78,21.221,7.26,32.355.633,14.7,3.032,29.614-2.626,43.95-2.708,6.862-1.543,13.37,1.328,19.784a98.753,98.753,0,0,0,13.094,21.782c1.289,1.6,2.427,3.641,5.153,3.563a13.1,13.1,0,0,0,1.192-2.161c5.3-16.119,10.549-32.256,15.868-48.37.979-2.968-.415-4.587-2.642-6.235-6.406-4.741-13.926-5.043-21.378-5.714-1.8-.162-4.077.113-4.731-1.958-.618-1.956.345-3.991,1.79-5.459,2.678-2.724,5.562-4.291,9.78-2.978,6.337,1.974,12.9,3.2,19.3,4.99,3.476.973,4.661-.371,4.661-3.585,0-3.832,0-7.664-.04-12.418m-92.729-96.449c-9.96-17.874-16.524-37.429-26.964-55.111,1.437,13.564,5.387,26.38,9.764,39.086a723.667,723.667,0,0,0,28.168,69.368c7.367,15.846,14.715,31.726,23.269,46.989,1.29,2.3,2.374,5.161,6.3,5.767,2.123-11.837,1.439-23.039-4.1-33.579-12.462-23.738-24.2-47.835-36.443-72.52M295.611,570.119a98.261,98.261,0,0,0,7.09-18.631c4-14.027,4.8-28.493,5.866-42.9.468-6.3.079-12.664.079-19a10.124,10.124,0,0,0-3.771,3.988c-5.474,10.73-12.448,20.485-19.516,30.178a37.108,37.108,0,0,0-6.779,15.956,200.963,200.963,0,0,0-2.09,41.321c.131,3.033.911,6.038,1.488,9.656,8.119-5.3,12.97-12.375,17.633-20.57m59.416-261.551c.543,3.758,5.514,4.993,5.764,10.092-8.388-5.724-16.038-10.876-22.736-17.376,16.5,23.057,31.117,47.277,49.217,69.233-1.288-4.807-2.576-9.614-4.068-15.18,1.463.635,2.057.838,2.6,1.136,6.971,3.85,9.284,2.785,8.72-4.993-.647-8.929-3.045-16.845-10.8-23.279-8.527-7.074-16.442-15.009-24.844-22.323-3.616-3.148-7.45-6.045-12.167-9.848,3.168,4.731,5.566,8.312,8.315,12.538m-69.032,154.09c5.356-20.331,10.321-40.745,13.187-61.591-2.981,7.09-5.778,14.21-8.534,21.346-8.332,21.58-16.508,43.22-19.838,66.283-.782,5.413-.9,10.923-1.317,16.389l1.722.285c7.325-13.068,10.505-27.657,14.78-42.712m107.736-23.85c2.808,4.632,5.293,9.533,10.047,13.515,1.158-3.606-.132-5.673-.894-7.789a132.16,132.16,0,0,0-8.546-18.563c-14.118-25.825-29.69-50.848-42.642-77.316-.8-1.642-1.742-3.219-2.627-4.82-.873-1.579-1.758-3.15-2.638-4.725,12.034,34.831,28.263,67.538,47.3,99.7M195.914,321.688c.772-3.827-2.53-3.063-4.142-3.131-9.138-.387-18.308-1.018-27.427-.053-3.263.345-6.941.351-9.568,3.092,6.7,9.545,28.406,9.79,41.137.092m189.355.652c2.851,4.933,4.961,10.646,11.879,11.3-.325-12.411-31.041-44.856-45.99-47.633,11.743,12.247,24.375,22.475,34.111,36.329M487.395,474.085c-4.552-.195-5.647,3.071-5.777,6.479-.148,3.872-.387,8.134,3.688,10.584a3.329,3.329,0,0,0,4.513-.456c3.18-3.521,2.176-13.612-2.424-16.607m-19.6,55.146c2.927.386,6.761,2.3,6.463-3.294-.111-2.088-1.734-3.521-3.7-4.291-1.645-.645-2.462.6-3.131,1.72C466.373,525.123,464.545,526.94,467.79,529.231Z"/>
    <path id="Path_12" data-name="Path 12" d="M368.787,521.3c14.642,31.972,29.039,63.642,43.675,95.2,1.882,4.057,1.4,6.156-2.535,8.272-6.377,3.429-12.489,7.349-18.6,11-1.014-1.141-.666-1.836-.142-2.167,5.546-3.5,4.692-8.191,3.093-13.518-8.751-29.152-19.826-57.561-27.782-86.961-2.256-8.338-4.223-16.753-6.328-25.132-.236-.941-.717-1.9.98-3.234C363.688,510.273,366.152,515.619,368.787,521.3Z"/>
    <path id="Path_13" data-name="Path 13" d="M433.772,337.946c-2.941-15-5.861-29.57-8.011-44.866,2.876,1.093,3.021,3.22,3.247,4.991,4.793,37.419,13.574,73.719,29.224,108.242,8.116,17.9,11.081,37.159,12.966,56.569.219,2.258.579,4.628-.639,7.648a39.437,39.437,0,0,1-4.469-16.921c-1.5-23.486-9.257-45.13-18.383-66.454C441,371.491,437.542,354.89,433.772,337.946Z"/>
    <path id="Path_14" data-name="Path 14" d="M171.38,246.6c.242,1.649,1.161,2.873.08,4.552-3.931.256-5.126-2.445-5.748-5.711-1.836-9.645-1.824-9.648-11.84-8.474-13.811,1.618-15.688.053-16.913-14.119a1.847,1.847,0,0,1,.156-.547c1.73-1.243,3.436-.307,5.172.138,4.026,1.032,8.021,2.6,12.106,2.9,9.342.7,13.735,6,15.288,14.607C170.063,242.07,170.766,244.131,171.38,246.6Z"/>
    <path id="Path_15" data-name="Path 15" d="M195.725,243.716c4.836,7.731,11.763,10.9,20.347,10.964,11.289.089,22.65-.447,33.436,3.948,2.337.952,4.854,1.675,3.95,5.756-16.5-.578-33.165-.131-48.448-8.183a24.053,24.053,0,0,1-11.939-13.965C194.693,242.023,195.044,242.837,195.725,243.716Z"/>
    <path id="Path_17" data-name="Path 17" d="M176.942,265.886c6.7,3.208,9.465,9.752,7.268,16.09a2.943,2.943,0,0,1-2.98,2.121c-3.27.116-6.575.731-10.478-.56C172.468,277.538,173.673,271.485,176.942,265.886Z"/>
    <path id="Path_18" data-name="Path 18" d="M122.36,268.024c-.185,2.547.541,4.765-.959,6.868-3.722-.145-6.837-2.146-10.159-3.507-1.811-.742-1.835-2.278-1.454-3.765.574-2.24,1.318-4.443,2.1-6.623.8-2.228,1.568-3.93,4.852-3.669,3.212.256,4.511,1.733,5.084,4.322A45.406,45.406,0,0,1,122.36,268.024Z"/>
    <path id="Path_19" data-name="Path 19" d="M102.144,257.978c-.8,1.439-.937,2.906-2.842,3.748-4.874-2.475-8.59-6.244-10.879-12.819,5.354.618,9.56,1.819,13.242,4.72C103.119,254.773,102.929,256.174,102.144,257.978Z"/>
  </g>
</svg>
